<mxfile host="app.diagrams.net" modified="2024-06-01T14:29:49.265Z" agent="Mozilla/5.0 (Windows NT 10.0; Win64; x64; rv:126.0) Gecko/20100101 Firefox/126.0" version="24.4.13" etag="JzE7eo3-J1QHav87wUMm" type="github">
  <diagram name="Page-1" id="1R5yMY2fugY879Ra9GQR">
    <mxGraphModel>
      <root>
        <mxCell id="0" />
        <mxCell id="1" parent="0" />
      </root>
    </mxGraphModel>
  </diagram>
</mxfile>
